# xmcd
#
# Track frame offsets: 
#        150
#        16792
#        33943
#        50234
#        65747
#        81423
#        97510
#        112524
#        129718
#        148891
#        164677
#        182976
#        199226
#        215631
#
# Disc length: 3109 seconds
#
# Revision: 0
# Processed by: cddbd v1.5.2PL0 Copyright (c) Steve Scherf et al.
# Submitted via: ExactAudioCopy v0.99pb3
#
DISCID=cc0c230e
DTITLE=Claudia Jung - Unwiederstehlich
DYEAR=1900
DGENRE=Pop
TTITLE0=Ich darf mich nicht in Dich verlieben
TTITLE1=Ein Tag zu wenig
TTITLE2=Ich hab mein Herz auf dich gesetzt
TTITLE3=Der rote Drachen
TTITLE4=Im Himmel der Gefühle
TTITLE5=Cheri
TTITLE6=Mir schenkst Du Rosen
TTITLE7=Komm....(Nimm mich einmal in Deinem Arm)
TTITLE8=War das denn alles Lüge
TTITLE9=Sommernacht im Süden
TTITLE10=Liebe stirbt langsam
TTITLE11=Zucker im Kaffee
TTITLE12=Dafür hab ich Dich zu sehr geliebt
TTITLE13=Sommerwein, wie die Liebe süss und wild (Bonustitel)
EXTD=
EXTT0=
EXTT1=
EXTT2=
EXTT3=
EXTT4=
EXTT5=
EXTT6=
EXTT7=
EXTT8=
EXTT9=
EXTT10=
EXTT11=
EXTT12=
EXTT13=
PLAYORDER=
